<svg xmlns="http://www.w3.org/2000/svg" xmlns:xlink="http://www.w3.org/1999/xlink" width="34" height="34" viewBox="0 0 34 34">
    <defs>
        <linearGradient id="c" x1="50%" x2="50%" y1="0%" y2="100%">
            <stop offset="0%" stop-color="#FBFBFB"/>
            <stop offset="100%" stop-color="#EDEAEA"/>
        </linearGradient>
        <path id="b" d="M0 0h32v32H0z"/>
        <filter id="a" width="112.5%" height="112.5%" x="-6.2%" y="-3.1%" filterUnits="objectBoundingBox">
            <feOffset dy="1" in="SourceAlpha" result="shadowOffsetOuter1"/>
            <feGaussianBlur in="shadowOffsetOuter1" result="shadowBlurOuter1" stdDeviation=".5"/>
            <feComposite in="shadowBlurOuter1" in2="SourceAlpha" operator="out" result="shadowBlurOuter1"/>
            <feColorMatrix in="shadowBlurOuter1" values="0 0 0 0 0 0 0 0 0 0 0 0 0 0 0 0 0 0 0.20970826 0"/>
        </filter>
    </defs>
    <g fill="none" fill-rule="evenodd">
        <g transform="translate(1)">
            <use fill="#000" filter="url(#a)" xlink:href="#b"/>
            <path fill="url(#c)" stroke="#FFF" stroke-linejoin="square" stroke-opacity=".235" d="M.5.5h31v31H.5z"/>
        </g>
        <path fill="#4CAF50" fill-rule="nonzero" d="M24.484 9.846c.284 0 .516.24.516.536v11.236a.527.527 0 0 1-.516.536h-5.638v-1.846h1.846v-1.231h-1.846v-1.23h1.846v-1.232h-1.846v-1.23h1.846v-1.231h-1.846v-1.222h1.865v-1.25h-1.865V9.846h5.638zm-.715 10.462v-1.231h-2.461v1.23h2.461zm0-2.462v-1.23h-2.461v1.23h2.461zm0-2.461v-1.231h-2.461v1.23h2.461zm0-2.462v-1.23h-2.461v1.23h2.461zM9 9.778L18.23 8v16L9 22.223V9.778zm5.839 9.348h1.664l-1.92-3.143 1.868-3.09h-1.564l-.991 1.851c-.095.24-.16.422-.196.543h-.017a3.265 3.265 0 0 0-.187-.525l-.891-1.87h-1.708l1.817 3.118-1.987 3.116h1.674l1.077-2.012a3.16 3.16 0 0 0 .144-.435h.017a1.8 1.8 0 0 0 .126.417l1.074 2.03z"/>
    </g>
</svg>
